<svg width="388" height="243" viewBox="0 0 388 243" fill="none" xmlns="http://www.w3.org/2000/svg">
<path d="M-73.1525 82.8697C-66.3907 68.5177 -55.8738 56.4074 -44.4703 45.5829C-33.0668 34.7585 -20.7884 25.2319 -6.74861 18.2181C21.1083 4.30858 55.0033 1.76027 83.2646 16.1476C111.373 30.4583 126.059 59.3332 131.789 89.3702C136.443 113.768 137.367 140.148 129.546 163.985C125.779 175.47 119.683 186.188 111.034 194.653C102.836 202.676 86.2319 215.447 75.5203 204.728C67.3266 196.529 72.9096 182.171 77.9111 173.895C83.8496 164.073 92.8868 156.777 103.222 152.034C124.45 142.295 150.219 142.82 172.392 148.831C204.226 157.467 230.188 178.933 254.837 199.956C267.894 211.093 281.392 221.994 296.588 230.058C307.571 235.886 319.338 239.915 331.626 241.773C343.503 243.572 356.347 243.803 367.638 239.131C372.938 236.942 377.82 233.692 381.464 229.203C386.116 223.481 388.181 216.444 387.641 209.076C387.095 201.661 384.415 194.523 380.475 188.271C378.461 185.073 373.384 188.029 375.416 191.25C379.521 197.768 382.301 205.425 381.815 213.235C381.398 219.889 377.849 225.658 372.633 229.639C362.998 236.989 349.774 237.744 338.173 236.683C326.062 235.58 314.042 232.158 303.118 226.79C287.266 219.004 273.316 207.973 259.901 196.57C234.249 174.756 207.512 152.417 174.457 143.28C151.099 136.827 124.515 136.467 101.992 146.165C90.9936 150.901 81.3115 158.363 74.505 168.321C67.6986 178.278 62.6016 191.692 67.5784 203.236C70.0227 208.905 75.1045 212.68 81.023 214.066C89.3816 216.025 97.3015 212.196 104.148 207.69C114.903 200.611 123.586 190.742 129.5 179.275C141.456 156.063 142.829 128.433 139.782 102.902C136.204 72.9006 126.355 42.0377 102.611 21.9521C78.8662 1.86645 43.2636 -3.93804 12.7924 4.43245C-3.36659 8.8684 -18.5082 16.826 -31.8358 26.972C-44.0968 36.3099 -55.6468 47.2405 -65.2136 59.3627C-70.2519 65.7394 -74.7503 72.5231 -78.2219 79.8966C-79.8259 83.3062 -74.7741 86.3028 -73.1583 82.8756L-73.1525 82.8697Z" fill="#C7CBE3"/>
</svg>
